<svg version="1.1" id="Layer_1" xmlns="http://www.w3.org/2000/svg" x="0" y="0" viewBox="0 0 2000 528.4" style="enable-background:new 0 0 2000 528.4" xml:space="preserve"><style>.st3{fill:#21313c}</style><path d="M232.9 210.3C205.1 87.5 147.1 54.8 132.3 31.7c-6.1-10.2-11.5-20.8-16.2-31.7-.8 10.9-2.2 17.8-11.5 26.1C86 42.7 6.9 107.1.3 246.6c-6.2 130.1 95.6 210.3 109.1 218.6 10.3 5.1 22.9.1 29.1-4.6 49-33.6 116.1-123.4 94.4-250.3" style="fill:#10aa50"/><path d="M120.3 396c-2.6 32.2-4.4 50.9-10.9 69.3 0 0 4.3 30.7 7.3 63.1h10.6c2.5-22.9 6.4-45.6 11.6-68-13.8-6.8-18-36.2-18.6-64.4z" style="fill:#b8c4c2"/><path d="M138.9 460.4C125 454 121 424 120.3 396c3.4-46.2 4.4-92.5 3-138.8-.7-24.3.3-225-6-254.4 4.3 10 9.3 19.6 14.9 28.9C147 54.8 205 87.5 232.9 210.3c21.7 126.6-45 216.2-94 250.1z" style="fill:#12924f"/><path class="st3" d="M1969.8 416c-16.7 0-30.2-13.5-30.2-30.2s13.5-30.2 30.2-30.2c16.5 0 29.9 13.3 30.2 29.7.4 16.4-12.5 30.1-29 30.6-.4.1-.8.1-1.2.1m0-57.6c-15.2-.1-27.5 12.1-27.6 27.3-.1 15.2 12.1 27.5 27.3 27.6 15.2.1 27.5-12.1 27.6-27.3v-.1c.3-14.9-11.6-27.2-26.5-27.5h-.8m7.3 46.5-7.8-16.8h-6.3v16.8h-4.6v-38.2h11.3c8.4 0 11.9 3.6 11.9 10.7 0 5.6-2.6 9.1-7.5 10.2l8 17.3h-5zm-13.9-20.7h6.6c5.3 0 7.4-1.8 7.4-6.7s-1.9-6.5-8-6.5h-6v13.2zM1520.9 388.5c8.2 6.5 24.5 9.2 38.9 9.2 18.6 0 36.9-3.5 54.8-19.6 18.2-16.5 30.7-41.8 30.7-82.2 0-38.8-14.8-70.3-45.1-88.7-17.1-10.7-39.2-15-64.5-15-7.3 0-14.8.4-19 2.3-1.7 1.4-3 3.3-3.5 5.5-.8 6.9-.8 59.5-.8 90.6 0 31.9 0 76.4.8 81.8.3 4.7 2.7 12.8 7.7 16.1M1443.4 175c6.6 0 31.7 1.1 43.4 1.1 21.8 0 36.9-1.1 77.7-1.1 34.2 0 62.9 9.2 83.5 26.9 24.9 21.5 38.2 51.5 38.2 88 0 51.9-23.6 81.8-47.4 98.7-23.6 17.7-54.4 27.7-98.2 27.7-23.3 0-63.3-.8-96.7-1.1h-.7c-1.6-3.1 2.9-15.1 5.6-15.4 9.1-1 11.5-1.4 15.7-3.1 7.1-2.9 8.7-6.5 9.5-19.2 1.2-23.8.8-52.2.8-84.5 0-23 .4-68-.4-82.2-1.2-11.9-6.2-15-16.4-17.3-7.2-1.5-14.5-2.7-21.8-3.5-.8-2.3 5.2-12.7 7.1-15M1782.4 194.5c-1.5.4-3.5 4.2-3.5 6.1-.4 13.8-.8 49.9-.8 74.9.2 1 1 1.7 1.9 1.9 5 .4 17.5.8 28 .8 14.8 0 23.3-1.9 28-4.2 12.4-6.1 18.2-19.6 18.2-34.2 0-33.4-23.3-46.1-57.9-46.1-4.7 0-9.4.2-13.9.8m88.1 153.6c0-33.8-24.9-53-70.3-53-1.9 0-16.4-.4-19.8.4-1.2.4-2.3 1.1-2.3 1.9 0 24.2-.4 63 .8 78.3.8 6.5 5.5 15.7 11.3 18.4 6.2 3.5 20.2 4.2 29.9 4.2 26.7.1 50.4-14.8 50.4-50.2m-158.3-172.4c3.5 0 13.8 1.1 40.3 1.1 24.9 0 45.1-.8 69.1-.8 29.9 0 71.1 10.8 71.1 55.3 0 21.8-15.5 39.6-35.7 48-1.2.4-1.2 1.1 0 1.5 28.7 7.3 54 25 54 58.8 0 33-20.6 53.8-50.5 66.8-18.2 8.1-40.8 10.7-63.6 10.7-17.5 0-64.3-1.8-90.3-1.5-2.7-1.1 2.5-13.5 4.8-15.4 6-.2 11.9-1.1 17.6-2.8 9.3-2.3 10.4-5.3 11.6-19.1.8-11.9.8-54.5.8-84.9 0-41.5.4-69.5 0-83.3-.4-10.7-4.3-14.2-11.7-16.1-5.8-1.2-15.5-2.3-23.3-3.5-2.1-1.8 3.9-13.3 5.8-14.8M319 416c-1-2.5-1.4-5.1-1.2-7.8-.1-1.8.3-3.6 1.2-5.2 5-.7 10-1.7 14.9-3 6.9-1.7 9.5-5.5 9.9-14.2 1.1-20.7 1.2-59.6.8-86.9v-.8c0-2.9 0-6.9-3.6-9.8-6.4-4-13.3-7.1-20.6-9.1-3.3-1-5.1-2.7-5-4.7.1-2 2.1-4.4 6.4-5.2 11.3-1.1 40.7-8.2 52.3-13.5 1.2 1.6 1.7 3.5 1.5 5.5 0 1.2-.2 2.5-.3 3.8-.3 3.9-.7 8.2-.7 12.6.2 1.6 1.7 2.7 3.2 2.5.6-.1 1.2-.4 1.6-.8 22.1-17.3 41.8-23.5 51.9-23.5 16.7 0 29.7 8 39.7 24.4.5.8 1.3 1.3 2.3 1.3.8 0 1.6-.4 2.1-1.1 20.3-15.4 40.4-24.6 53.8-24.6 31.8 0 50.8 23.8 50.8 63.6 0 11.5-.1 26-.2 39.5-.1 11.9-.2 23-.2 30.7 0 1.8 2.5 7.1 6.3 8.1 4.7 2.3 11.4 3.4 19.9 4.9h.3c.6 2.3-.7 11.2-2 13-2.1 0-5-.2-8.7-.4-6.6-.3-15.7-.8-26.2-.8-21.1 0-32.2.4-42.7 1.1-.8-2.6-1.1-11.1-.1-12.9 4.4-.7 8.7-1.6 12.9-2.8 6.7-2.2 8.7-5.3 9.1-14.2.2-6.3 1.4-62.3-.8-75.5-2-13.8-12.4-29.9-35-29.9-8.4 0-22 3.5-34.9 13.3-.8.9-1.3 2.1-1.3 3.3v.3c1.5 7.2 1.5 15.5 1.5 28.2 0 7.3 0 14.9-.1 22.4-.1 15.4-.2 30 .1 41 0 7.5 4.5 9.3 8.2 10.7 2 .4 3.5.8 5.1 1.2 3 .7 6.2 1.5 10.9 2.3.7 3.2.6 6.5-.2 9.7-.2 1.2-.7 2.3-1.4 3.3-11.7-.4-23.8-.7-41.2-.7-5.3 0-13.9.2-21.5.4-6.2.2-12 .3-15.3.3-.9-2.1-1.3-4.4-1.2-6.7-.2-2.2.2-4.3 1.2-6.3l4.7-.9c4.1-.7 7.6-1.3 10.9-2.2 5.7-1.8 7.9-4.9 8.3-12.3 1.1-17.1 2-66.3-.4-78.7-4.1-19.8-15.4-29.8-33.5-29.8-10.6 0-24 5.1-34.9 13.3-2.1 2.1-3.3 4.9-3.2 7.9v20.3c0 24.7-.2 55.5.4 68.8.4 4.1 1.8 9 9.5 10.8 1.7.5 4.6 1 8 1.5 1.9.3 4.1.7 6.3 1.1.7 4.4.3 8.8-1 13-3.4 0-7.5-.2-12.3-.4-7.3-.3-16.4-.7-26.6-.7-12.1 0-20.6.4-27.4.7-4.4.4-8.3.6-12.3.6M708.9 272.4c-6.6-.1-13 1.7-18.5 5.2-13.5 8.2-20.4 24.6-20.4 48.7 0 45.1 22.6 76.5 54.9 76.5 8.7.3 17.1-2.7 23.7-8.4 9.9-8.1 15.2-24.6 15.2-47.8-.1-44.4-22.1-74.2-54.9-74.2m6.2 147.1c-58.4 0-79.1-42.8-79.1-82.9 0-28 11.4-49.9 34-65 15.8-9.8 33.9-15.1 52.5-15.5 44.5 0 75.6 32 75.6 77.9 0 31.2-12.4 55.8-35.9 71.2-11.3 6.8-30.9 14.3-47.1 14.3M1303.1 272.4c-6.6-.1-13 1.7-18.6 5.2-13.5 8.2-20.4 24.6-20.4 48.7 0 45.1 22.6 76.5 54.9 76.5 8.7.3 17.2-2.7 23.7-8.4 9.9-8.1 15.2-24.6 15.2-47.8 0-44.4-22-74.2-54.8-74.2m6.2 147.1c-58.4 0-79.1-42.8-79.1-82.9 0-28 11.4-49.9 34-65.1 15.8-9.8 33.9-15.2 52.5-15.5 44.5 0 75.6 32 75.6 77.9 0 31.2-12.4 55.8-35.9 71.2-11.3 6.9-30.9 14.4-47.1 14.4M1106.6 270.8c-18 0-29.6 14.2-29.6 36.2s10 48.1 38.2 48.1c4.8 0 13.6-2.1 17.9-6.9 6.5-6 10.9-18.5 10.9-31.6 0-28.6-14-45.8-37.4-45.8m-2.3 151.8c-5.1-.1-10.1 1.2-14.5 3.6-14.2 9.1-20.8 18.2-20.8 28.7 0 9.9 3.8 17.8 12.1 24.7 10 8.5 23.5 12.6 41.2 12.6 34.9 0 50.5-18.8 50.5-37.3 0-12.9-6.5-21.6-19.9-26.5-10.3-3.8-27.5-5.8-48.6-5.8m2.4 89.1c-20.9 0-36-4.4-48.9-14.3-12.5-9.7-18.2-24-18.2-34 .1-6.4 2.6-12.5 6.9-17.3 3.6-4.1 12.1-11.9 31.6-25.3.6-.3 1-.9 1-1.5 0-.8-.5-1.4-1.2-1.6-16.1-6.2-20.9-16.4-22.4-21.8 0-.2 0-.5-.2-.9-.5-2.1-.9-4.2 2-6.3 2.3-1.6 5.9-3.7 9.7-6 5.4-3 10.7-6.4 15.6-10.2 1-1 .9-2.7-.1-3.6-.2-.1-.3-.3-.5-.4-23.8-8-35.8-25.7-35.8-52.7-.1-17.1 8.1-33.2 22-43.1 9.6-7.6 33.6-16.7 49.2-16.7h.9c16 .4 25.1 3.7 37.6 8.4 7.1 2.6 14.7 3.8 22.2 3.5 13.3 0 19.1-4.2 24-9.1.8 2.2 1.2 4.5 1.3 6.9.3 5.6-1.2 11.1-4.3 15.8-2.7 3.8-9.1 6.5-14.9 6.5-.6 0-1.2 0-1.8-.1-3.1-.2-6.1-.7-9.1-1.5l-1.5.5c-.5.7-.2 1.5.2 2.4.1.2.2.4.2.6 1.1 4.9 1.8 9.8 2.2 14.7 0 28.3-11.1 40.6-23.2 49.7-11.7 8.7-25.5 14.1-40 15.5-.3 0-1.8.1-4.7.4-1.8.2-4.2.4-4.5.4h-.3c-2.6.7-9.5 4-9.5 10 0 5 3.1 11.3 17.9 12.4l9.6.7c19.5 1.4 43.8 3.1 55.3 6.9 15.6 5.5 25.9 20.3 25.6 36.9 0 25.4-18 49.2-48.2 63.8-14.2 6.8-29.8 10.3-45.6 10.2M1017.4 402.5c-8.5-1.1-14.8-2.3-22.1-5.8-1.4-1.5-2.4-3.4-2.7-5.5-.8-11.9-.8-46.5-.8-69.1 0-18.5-3.1-34.5-10.9-46.1-9.3-13.1-22.5-20.7-39.6-20.7-15.1 0-35.3 10.4-52 24.6-.4.4-3 2.8-2.9-1 .1-3.8.6-11.5 1-16.4.3-2.6-.6-5.3-2.5-7.1-10.9 5.5-41.5 12.7-52.8 13.8-8.3 1.6-10.3 9.5-1.5 12.3h.1c7.1 1.9 13.8 4.9 20 8.8 3.5 2.7 3.1 6.5 3.1 9.6.4 25.7.4 65.3-.8 86.8-.4 8.5-2.7 11.5-8.9 13.1l.6-.2c-4.7 1.2-9.5 2.1-14.4 2.7-1.9 1.9-1.9 13.1 0 15.4 3.9 0 23.6-1.1 40-1.1 22.5 0 34.2 1.1 40 1.1 2.3-2.7 3.1-13.1 1.6-15.4-5.4-.2-10.7-1-15.9-2.3-6.2-1.5-7.8-4.6-8.1-11.5-.8-18.1-.8-56.5-.8-82.6 0-7.3 1.9-10.7 4.3-12.7 7.8-6.9 20.6-11.5 31.9-11.5 10.9 0 18.2 3.5 23.6 8.1 6.4 5.5 10.3 13.3 11.1 21.7 1.5 14.5 1.1 43.8 1.1 69.1 0 13.8-1.1 17.3-6.2 18.8-2.3 1.1-8.5 2.3-15.9 3.1-2.3 2.3-1.6 13.1 0 15.4 10.1 0 21.8-1.1 38.8-1.1 21.4 0 35 1.1 40.4 1.1 2-2.7 2.8-12.8 1.2-15.4"/></svg>